<?xml version="1.0" standalone="no"?>
<!DOCTYPE svg PUBLIC "-//W3C//DTD SVG 1.1//EN" "http://www.w3.org/Graphics/SVG/1.1/DTD/svg11.dtd" >
<svg xmlns="http://www.w3.org/2000/svg" xmlns:xlink="http://www.w3.org/1999/xlink" version="1.1">
<metadata></metadata>
<defs>
<font id="big_shoulders_stencil_textXBd" horiz-adv-x="1025" >
<font-face units-per-em="2048" ascent="1638" descent="-410" />
<missing-glyph horiz-adv-x="444" />
<glyph unicode="&#xfb01;" horiz-adv-x="1170" d="M28 1024v205h136v91q0 181 98.5 260.5t305.5 79.5q36 0 77.5 -4t80.5 -10v-198q-38 0 -77.5 0.5t-79.5 0.5q-130 0 -130 -109l2 -1340h-275l-2 1024h-136zM541 1024v205h135v-205h-135zM781 1424v214h284v-214h-284zM800 0v1229h271v-1229h-271z" />
<glyph unicode="&#xfb02;" horiz-adv-x="1179" d="M28 1024v205h136v91q0 181 98.5 260.5t305.5 79.5q36 0 77.5 -4t80.5 -10v-198q-38 0 -77.5 0.5t-79.5 0.5q-130 0 -130 -109l2 -1340h-275l-2 1024h-136zM541 1024v205h135v-205h-135zM808 0v1638h272v-1638h-272z" />
<glyph horiz-adv-x="0" />
<glyph horiz-adv-x="682" />
<glyph unicode=" "  horiz-adv-x="444" />
<glyph unicode="&#x09;" horiz-adv-x="444" />
<glyph unicode="&#xa0;" horiz-adv-x="444" />
<glyph unicode="!" horiz-adv-x="534" d="M85 0v263h365v-263h-365zM131 965v673h272v-673l-35 -546h-201z" />
<glyph unicode="&#x22;" horiz-adv-x="808" d="M85 1367v271h234v-271l-49 -276h-135zM489 1367v271h235v-271l-50 -276h-134z" />
<glyph unicode="#" horiz-adv-x="1471" d="M61 440l54 222h207l78 325h-210l54 221h206l101 430h273l-381 -1638h-272l102 440h-212zM641 440l50 222h114l80 325h-115l48 221h115l101 430h273l-102 -430h205l-50 -221h-204l-79 -325h202l-54 -222h-196l-102 -440h-273l103 440h-116z" />
<glyph unicode="$" horiz-adv-x="985" d="M72 1188.5q0 44.5 2 91.5q5 142 54 227t153 121v245h149v-446q-78 -22 -86 -99q-10 -116 0 -234q4 -53 27.5 -89t77.5 -49l151 -31q166 -36 236 -132t76 -251q1 -43 0.5 -91.5t-2.5 -90.5q-6 -143 -54 -228t-149 -121v-227h-149v428q73 20 81 100q6 56 6 114.5t-6 115.5 q-8 113 -122 139l-170 39q-153 35 -211 127.5t-63 246.5q-1 50 -1 94.5zM79 484q1 66 8 125h255q-4 -80 -4.5 -155t4.5 -142q6 -82 88 -101v-427h-149v228q-99 37 -147 121.5t-54 226.5q-2 58 -1 124zM558 1427v446h149v-247q98 -37 145 -121.5t52 -224.5q2 -50 0.5 -116.5 t-3.5 -128.5h-261q3 77 4 149t-2 144q-2 80 -84 99z" />
<glyph unicode="%" horiz-adv-x="1349" d="M71 1265.5q0 60.5 3 149.5q4 100 60 159.5t160 71.5v-167q-17 -10 -19 -32q-5 -50 -6.5 -120.5t0 -136t6.5 -99.5q3 -19 19 -32v-169q-100 11 -157.5 69.5t-62.5 163.5q-3 82 -3 142.5zM112 0l927 1638h190l-930 -1638h-187zM388 890v167q16 12 20 33q4 38 5.5 104 t0 135.5t-5.5 117.5q-2 20 -20 33v166q210 -24 222 -231q3 -67 3 -149.5t-3 -141.5q-6 -101 -63 -162t-159 -72zM736 366.5q0 60.5 3 149.5q3 100 60 159.5t159 70.5v-166q-16 -10 -18 -32q-4 -50 -5.5 -120.5t0 -136t5.5 -100.5q3 -19 18 -31v-169q-99 11 -157 69.5 t-62 163.5q-3 82 -3 142.5zM1053 -9v167q16 12 19 32q5 38 6.5 104t0 136t-6.5 118q-2 20 -19 33v165q210 -24 222 -230q3 -67 3 -149.5t-3 -141.5q-6 -101 -63 -162t-159 -72z" />
<glyph unicode="&#x26;" horiz-adv-x="1243" d="M88.5 441.5q0.5 32.5 2.5 64t4 77.5q4 97 39 163.5t85 115.5q32 -61 70.5 -122t81.5 -122q-8 -20 -12 -47q-3 -36 -5 -64t-1.5 -62.5t3.5 -91.5q3 -59 27.5 -97.5t75.5 -51.5v-221q-189 10 -275 99.5t-94 277.5q-2 49 -1.5 81.5zM159 1265q-19 162 54.5 266.5 t242.5 123.5v-196q-31 -22 -44 -62t-11 -91q6 -109 65 -237.5t149.5 -261.5t191.5 -257t194 -225t154 -164l-176 -167q-133 136 -270 292.5t-255.5 323t-198 333t-96.5 322.5zM528 1083q55 53 78 100.5t29 92.5q11 70 1 119t-52 69v190q164 -15 234.5 -112.5t53.5 -263.5 q-11 -112 -66.5 -208.5t-158.5 -190.5q-77 113 -119 204zM588 -16v219q46 10 65 45q41 -46 82 -90t82 -87q-78 -75 -229 -87zM723 830h221q9 -72 15 -171t5 -194q-66 72 -124.5 142.5t-105.5 135.5q-2 22 -4.5 43.5t-6.5 43.5z" />
<glyph unicode="'" horiz-adv-x="417" d="M85 1367v271h248v-271l-53 -276h-142z" />
<glyph unicode="(" horiz-adv-x="613" d="M61 624q0 183 31.5 372t96.5 356.5t164 285.5h199q-101 -231 -155 -496t-54 -528q0 -261 54 -527.5t155 -496.5h-199q-89 117 -154.5 279.5t-101.5 354.5t-36 400z" />
<glyph unicode=")" horiz-adv-x="578" d="M27 -410h199q89 117 154.5 279.5t101.5 354.5t36 400q0 183 -31.5 372t-96.5 356.5t-164 285.5h-199q101 -231 155 -496t54 -528q0 -261 -54 -527.5t-155 -496.5z" />
<glyph unicode="*" horiz-adv-x="561" d="M43 1363l146 62l-146 63l57 96l133 -83l-11 146h117l-13 -144l134 81l58 -96l-146 -63l146 -62l-58 -96l-134 83l13 -146h-117l11 144l-133 -81z" />
<glyph unicode="+" horiz-adv-x="1092" d="M105 642v205h336v338h210v-338h335v-205h-335v-338h-210v338h-336z" />
<glyph unicode="," horiz-adv-x="525" d="M80 0v268h365v-243l-166 -298h-156l131 273h-174z" />
<glyph unicode="-" horiz-adv-x="899" d="M61 618v239h777v-239h-777z" />
<glyph unicode="." horiz-adv-x="491" d="M63 0v263h365v-263h-365z" />
<glyph unicode="/" horiz-adv-x="844" d="M61 -410l448 2048h274l-447 -2048h-275z" />
<glyph unicode="0" horiz-adv-x="1018" d="M86 835.5q1 226.5 5 442.5q4 169 95.5 265t258.5 112v-228q-76 -22 -77 -99q-6 -190 -9 -350t-0.5 -319t9.5 -347q2 -80 77 -101v-227q-168 15 -259 111.5t-95 265.5q-6 248 -5 474.5zM574 -16v228q71 22 76 95q7 179 10 344.5t0 331t-10 347.5q-2 75 -76 97v228 q164 -15 256 -111.5t96 -265.5q14 -480 0 -917q-6 -173 -98.5 -267.5t-253.5 -109.5z" />
<glyph unicode="1" horiz-adv-x="564" d="M51 1491l180 147h226v-1638h-282v1394h-116z" />
<glyph unicode="2" horiz-adv-x="980" d="M77 200q0 49 1 131q5 169 82 285.5t226 197.5l136 74q72 39 92 93.5t23 102.5q4 55 4.5 120t-2.5 121q-5 81 -84 103v228q187 -12 268.5 -101t89.5 -277q4 -102 0 -194q-6 -164 -83.5 -263.5t-202.5 -168.5l-155 -84q-66 -36 -91 -107t-25 -130v-331h-276q-1 63 -2 107 t-1 93zM77.5 1164q-1.5 61 0.5 114q7 187 89.5 276.5t258.5 101.5v-229q-71 -22 -73 -95q-2 -80 -3 -148.5t4 -149.5h-272q-3 69 -4.5 130zM485 0v239h409v-239h-409z" />
<glyph unicode="3" horiz-adv-x="986" d="M57.5 427q-0.5 26 0 52.5t1.5 68.5h277v-221q0 -91 87 -116v-228q-186 13 -272.5 102.5t-91.5 276.5q-1 39 -1.5 65zM77 1400v238h830v-238h-830zM275 955l246 355h304l-247 -346h8q165 0 242.5 -95t86.5 -289q2 -55 3 -109t-3 -109q-8 -191 -93 -280t-270 -99l-1 227 q86 22 89 116q2 78 2.5 140t-3.5 121q-3 60 -37 101.5t-128 40.5l-191 -2z" />
<glyph unicode="4" horiz-adv-x="1094" d="M44 431v224l183 482h267l-186 -469h103v-237h-367zM540 0v1638h258v-1638h-258zM927 431v237h120v-237h-120z" />
<glyph unicode="5" horiz-adv-x="1015" d="M84 469.5q1 40.5 2 78.5h276q-3 -30 -4.5 -74t-1 -85t2.5 -60q8 -94 91 -118v-228q-189 13 -274.5 102.5t-90.5 276.5q-2 67 -1 107.5zM111 705v933h273v-933h-273zM513 813v194q30 15 65.5 24t76.5 9q140 0 210.5 -89t78.5 -240q6 -91 5 -181.5t-7 -165.5 q-17 -191 -99 -281t-265 -100v228q82 23 88 117q9 112 10 200.5t-6 169.5q-11 118 -142 118q-8 0 -15 -3zM513 1400v238h407v-238h-407z" />
<glyph unicode="6" horiz-adv-x="1006" d="M86.5 804q-0.5 239 3.5 474q3 177 96 269.5t256 107.5v-229q-76 -20 -75 -99q-4 -281 -5.5 -527.5t3.5 -482.5q0 -84 79 -106v-228q-188 12 -269.5 100.5t-84.5 278.5q-3 203 -3.5 442zM486 793v190q69 39 155 39q162 0 225.5 -76.5t66.5 -254.5q2 -71 2.5 -119.5 t0 -95.5t-3.5 -114q-10 -189 -92.5 -278.5t-267.5 -100.5v226q80 20 83 103q3 117 5.5 197.5t-2.5 174.5q-1 56 -39.5 84.5t-101.5 28.5q-18 0 -31 -4zM570 1426v228q168 -16 256.5 -112t95.5 -251q1 -39 1 -72t-1 -89h-275q4 54 3.5 92t-3.5 105q-4 80 -77 99z" />
<glyph unicode="7" horiz-adv-x="925" d="M28 1400v238h860v-238h-860zM143 0l432 1299h279l-425 -1299h-286z" />
<glyph unicode="8" horiz-adv-x="1004" d="M81 447.5q0 35.5 5 100.5q9 108 51.5 170t126.5 97v40q-60 20 -103 68.5t-57 122.5q-8 53 -11.5 116.5t-1.5 113.5q10 186 88 277t259 103v-229q-79 -24 -79 -115q-1 -61 -1 -112.5t1 -112.5q0 -93 79 -116v-276q-78 -24 -79 -117q-1 -63 -1 -125.5v-124.5q1 -93 80 -117 v-228q-187 13 -267.5 105t-87.5 274q-2 50 -2 85.5zM566 -17v228q79 24 79 116q1 66 1 125.5t-1 125.5q-1 93 -79 117v276q79 24 79 118q0 55 0.5 111t-0.5 112q-1 92 -79 115v229q175 -13 256 -102.5t90 -277.5q2 -48 -1.5 -116t-10.5 -113q-13 -75 -56.5 -123t-104.5 -69 v-42q77 -35 121 -97.5t58 -164.5q6 -59 6 -103t-2 -86q-9 -188 -91 -277.5t-265 -101.5z" />
<glyph unicode="9" horiz-adv-x="1006" d="M71.5 1157q0.5 80 1.5 119q8 188 92.5 277t266.5 102v-228q-82 -20 -83 -102q0 -11 -0.5 -61t-1 -113.5t-1 -119.5t0.5 -83q2 -54 43.5 -81.5t107.5 -27.5q12 0 21 2v-200q-57 -28 -129 -28q-84 0 -156.5 35.5t-117 111.5t-44.5 199q-1 118 -0.5 198zM99 360v70.5t2 76.5 h275q-2 -50 -2.5 -95.5t1.5 -99.5q3 -72 57 -96v-232q-175 14 -254 103t-79 273zM560 -18v227q37 9 58.5 34.5t21.5 70.5q2 134 3 250t0.5 230.5t-1.5 244t-3 290.5q0 75 -79 98v228q187 -10 268.5 -100.5t85.5 -278.5q4 -187 5.5 -335.5t0 -286.5t-5.5 -294 q-4 -190 -89 -279t-265 -99z" />
<glyph unicode=":" horiz-adv-x="523" d="M63 0v263h365v-263h-365zM63 614v263h365v-263h-365z" />
<glyph unicode=";" horiz-adv-x="508" d="M63 615v263h365v-263h-365zM80 0v268h365v-243l-166 -298h-156l131 273h-174z" />
<glyph unicode="&#x3c;" horiz-adv-x="1197" d="M123 587l951 -137v220l-455 46l-294 8v54l294 7l455 49v221l-951 -143v-325z" />
<glyph unicode="=" horiz-adv-x="1057" d="M88 463v205h882v-205h-882zM88 824v206h882v-206h-882z" />
<glyph unicode="&#x3e;" horiz-adv-x="1128" d="M88 450v220l455 46l294 8v54l-294 7l-455 49v221l951 -143v-325z" />
<glyph unicode="?" horiz-adv-x="990" d="M54 1194q0 26 2 63q11 200 96 295t273 107v-252q-66 -24 -71 -95q-4 -62 -4 -129.5t3 -120.5h-295q-2 48 -3 77t-1 55zM301 0v263h364v-263h-364zM359 546q-6 80 4 140t49.5 112.5t122.5 104.5l38 24q39 24 49 72t10 98v215q0 77 -79 98v249q204 -11 293 -106.5 t89 -295.5q0 -39 0.5 -79.5t-0.5 -81.5q0 -113 -21 -181.5t-53.5 -106.5t-67.5 -57t-65 -33l-53 -26q-47 -24 -56 -63.5t-16 -82.5l-8 -99h-231z" />
<glyph unicode="@" horiz-adv-x="1424" d="M88 718.5q1 158.5 5 359.5q4 232 133 340.5t420 117.5v-178q-176 -9 -254.5 -72t-82.5 -196q-6 -183 -7.5 -342t0.5 -312.5t7 -319.5q4 -124 82 -181.5t255 -65.5v-179q-290 9 -419.5 112t-133.5 326q-3 151 -4.5 291.5t-0.5 299zM415 635q1 109 6 191q7 124 51 177.5 t129 53.5q63 0 100 -38v-116q-5 2 -14 2q-30 0 -41 -16t-12 -43q-5 -80 -6.5 -145.5t0.5 -131t6 -146.5q1 -35 15 -49t38 -14q9 0 14 2v-112q-18 -19 -42 -29.5t-61 -10.5q-83 0 -125.5 52t-51.5 174q-7 90 -6 199zM775 -131q174 8 252.5 67.5t79.5 183.5v28h211v-11.5 v-15.5q-1 -220 -127.5 -321t-415.5 -110v179zM775 387v648h212l1 -620q0 -74 66 -74q56 0 61 76q6 123 8 302.5t-6 370.5q-6 130 -83.5 194.5t-258.5 73.5v178q286 -9 417 -116.5t138 -342.5q5 -190 5 -348.5t-5 -318.5q-4 -103 -77 -154.5t-199 -51.5q-129 0 -204 41 t-75 142z" />
<glyph unicode="A" horiz-adv-x="988" d="M41 0l215 1638h482l28 -239h-308l-16 -422l-44 -366h149l-64 -238h-110l-54 -373h-278zM542 1299h232l173 -1299h-278l-114 978z" />
<glyph unicode="B" horiz-adv-x="1004" d="M108 0v1638h271v-1638h-271zM507 0v240h14q136 0 137 131v80.5v80.5q-1 98 -32 139t-104 41h-15v239h17q131 0 132 165q1 44 1 84.5t-1 84.5q0 114 -136 114h-13v239h13q212 0 310 -85.5t98 -281.5v-85.5t-2 -76.5q-5 -105 -46.5 -167t-127.5 -90v-45q89 -28 131 -91 t46 -171q2 -48 1.5 -88t-1.5 -89q-8 -197 -102 -282.5t-306 -85.5h-14z" />
<glyph unicode="C" horiz-adv-x="1006" d="M88 672v147.5v147.5q1 148 4 314q3 181 89 271t268 103v-229q-83 -20 -85 -133q-6 -250 -6 -474q0 -15 -1 -30q0 -211 7 -443q2 -114 85 -135v-228q-185 11 -269 99.5t-88 277.5q-3 165 -4 312zM578 -17v227q82 23 87 136q3 58 3 108v16q0 56 -4 138h271q2 -61 2 -126.5 t-2 -121.5q-5 -188 -89 -276.5t-268 -100.5zM578 1425v230q175 -14 259.5 -106t89.5 -270q1 -38 2 -79q0 -21 -1 -42q-1 -64 -3 -123h-271q2 63 2 129q0 22 1 44q0 43 -1 85q-3 110 -78 132z" />
<glyph unicode="D" horiz-adv-x="1018" d="M108 0v1638h271v-1638h-271zM507 0v240h15q130 0 133 113q7 243 7 467q0 13 1 26q0 211 -8 440q-3 113 -136 113h-12v239h12q213 0 308.5 -89t99.5 -294q3 -155 4 -295q0 -70 0.5 -140t-0.5 -140q-1 -140 -4 -295q-4 -206 -98.5 -295.5t-306.5 -89.5h-15z" />
<glyph unicode="E" horiz-adv-x="863" d="M108 0v1638h271v-1638h-271zM509 0v240h297v-240h-297zM509 712v239h276v-239h-276zM509 1399v239h297v-239h-297z" />
<glyph unicode="F" horiz-adv-x="848" d="M108 0v1638h271v-1638h-271zM507 712v239h281v-239h-281zM507 1399v239h302v-239h-302z" />
<glyph unicode="G" horiz-adv-x="1014" d="M89 654q-1 80 -1 160.5t1 161.5q1 160 5 289q7 194 90 286.5t266 103.5v-227q-43 -10 -62.5 -38t-21.5 -79q-11 -240 -12 -491v-21q0 -241 12 -469q2 -52 21.5 -81t62.5 -38v-227q-183 11 -266.5 99.5t-89.5 276.5q-4 132 -5 294zM546 537v236h389q3 -82 3 -167v-43 q-1 -108 -5 -203q-8 -188 -90.5 -276.5t-263.5 -99.5v226q46 9 67 37.5t25 82.5q3 45 3 103.5t-3 103.5h-125zM579 1427v228q176 -11 256.5 -100t93.5 -275q3 -56 3 -122t-3 -123h-272q3 69 3 138t-3 138q-3 50 -21 77.5t-57 38.5z" />
<glyph unicode="H" d="M108 0v1638h271v-687h201l-64 -239h-137v-712h-271zM646 0v1638h272v-1638h-272z" />
<glyph unicode="I" horiz-adv-x="486" d="M108 0v1638h271v-1638h-271z" />
<glyph unicode="J" horiz-adv-x="937" d="M46 360q-2 62 -2 124t2 125h255q-1 -62 -1 -139q-1 -16 -1 -31q0 -59 2 -109q2 -98 76 -119v-227q-171 12 -248.5 100.5t-82.5 275.5zM505 -16v227q73 20 73 119v1308h270v-1278q0 -187 -79.5 -276t-263.5 -100z" />
<glyph unicode="K" horiz-adv-x="1007" d="M108 0v849h325l111 403l139 386h295l-594 -1382v-256h-276zM108 951v687h288l-2 -381l-36 -306h-250zM588 450l163 371l242 -821h-274z" />
<glyph unicode="L" horiz-adv-x="799" d="M108 0v1638h271v-1638h-271zM507 0v240h269v-240h-269z" />
<glyph unicode="M" horiz-adv-x="1630" d="M108 0v1310h240l39 -813v-497h-279zM108 1400v238h507l120 -637l38 -760h85l36 760l121 637h507v-238h-324l-88 -916l-119 -482h-360l-109 480l-91 918h-323zM1242 0v497l39 813h241v-1310h-280z" />
<glyph unicode="N" horiz-adv-x="1208" d="M108 0v1304h215l33 -676l23 -628h-271zM108 1401v237h464l113 -527l119 -871h296v-240h-484l-115 549l-93 852h-300zM827 1638h273v-1301h-216l-36 630z" />
<glyph unicode="O" d="M88 675v146v145q1 146 4 311q4 189 87.5 278.5t270.5 99.5v-228q-81 -23 -83 -136q-11 -245 -11 -469v-20q0 -215 11 -453q2 -116 83 -138v-227q-186 10 -270 99.5t-88 278.5q-3 167 -4 313zM579 -16v227q80 22 81 138q10 247 10 471q0 10 1 19q0 215 -11 452 q-2 115 -81 136v228q179 -12 261 -101.5t88 -276.5q6 -165 8 -311q1 -73 1 -146t-1 -146q-2 -146 -8 -312q-6 -188 -88 -277t-261 -101z" />
<glyph unicode="P" horiz-adv-x="984" d="M108 0v1638h271v-1638h-271zM507 550v240h10q128 0 134 112q5 86 5 189t-5 195q-6 113 -133 113h-11v239h11q210 0 303.5 -85t100.5 -280q4 -99 4 -181.5t-4 -175.5q-7 -196 -101 -281t-304 -85h-10z" />
<glyph unicode="Q" d="M88 675v146v145q1 146 4 311q4 189 87.5 278.5t270.5 99.5v-228q-81 -23 -83 -136q-10 -246 -11 -469v-20q0 -215 11 -453q2 -116 83 -138v-227q-186 10 -270 99.5t-88 278.5q-3 167 -4 313zM390 -41h260q22 -53 91 -53q12 0 26 2v-218q-32 -3 -61 -3q-130 0 -204 52 q-90 63 -112 220zM579 -16v227q80 22 81 138q10 247 10 471q1 9 1 19q0 215 -11 452q-2 115 -81 136v228q179 -12 261 -101.5t88 -276.5q6 -166 8 -311q1 -73 1 -146t-1 -146q-2 -146 -8 -312q-6 -188 -88 -277t-261 -101z" />
<glyph unicode="R" horiz-adv-x="1016" d="M108 0v1638h271v-1638h-271zM506 1399v239h13q210 0 303.5 -85t101.5 -280q3 -101 3 -171.5t-3 -164.5q-9 -239 -153 -315l185 -622h-281l-153 571h-15v240h11q129 0 134 113q5 91 5 181t-5 181q-6 113 -133 113h-13z" />
<glyph unicode="S" horiz-adv-x="985" d="M72 1188.5q0 44.5 2 91.5q7 186 90 275t266 100v-228q-78 -22 -86 -99q-5 -58 -5 -116.5t5 -117.5q4 -53 27.5 -89t77.5 -49l151 -31q166 -36 236 -132t76 -251q1 -29 1 -60q-1 -16 -1 -32q0 -48 -2 -90q-8 -187 -90 -276t-262 -100v228q73 20 81 100q6 56 6 114.5 t-6 115.5q-8 113 -122 139l-170 39q-153 35 -211 127.5t-63 246.5q-1 50 -1 94.5zM79 484q1 66 8 125h255q-4 -80 -4 -155v-14q0 -68 4 -128q6 -82 88 -101v-227q-179 12 -261 100.5t-89 275.5q-1 39 -1 81v43zM558 1427v228q176 -12 257.5 -100.5t88.5 -274.5q1 -29 1 -63 q-1 -25 -1 -53q-2 -66 -3 -129h-261q3 77 4 149v36q0 54 -2 108q-2 80 -84 99z" />
<glyph unicode="T" horiz-adv-x="843" d="M11 1399v239h822v-239h-822zM287 0v1310h271v-1310h-271z" />
<glyph unicode="U" horiz-adv-x="1020" d="M89 998.5q0 321.5 4 639.5h272q-5 -273 -5 -559v-95q1 -336 4 -655q0 -93 83 -116v-229q-186 11 -268.5 99.5t-85.5 275.5q-4 318 -4 639.5zM575 -16v229q81 24 81 116q3 319 5 655v148q0 259 -5 506h272q4 -318 4 -639t-4 -640q-3 -187 -85.5 -275.5t-267.5 -99.5z" />
<glyph unicode="V" horiz-adv-x="1014" d="M37 1638h280l114 -843l23 -465h-233zM236 240h322l28 555l111 843h281l-223 -1638h-486z" />
<glyph unicode="W" horiz-adv-x="1677" d="M49 1638h272l50 -715l33 -683h318l-38 -240h-491zM505 330l8 593l121 705h407l122 -705l12 -683h324l-23 -240h-490l-68 477l-34 921h-90l-33 -921l-20 -147h-236zM1273 330l35 593l49 715h272l-123 -1308h-233z" />
<glyph unicode="X" horiz-adv-x="929" d="M22 0l194 628h201l-23 -225l-107 -403h-265zM28 1638h265l101 -384l34 -298h215l265 -956h-265l-103 403l-34 315h-202zM516 1046l22 208l98 384h265l-173 -592h-212z" />
<glyph unicode="Y" horiz-adv-x="931" d="M22 1638h276l84 -413l40 -479h250l-51 -212h-36v-534h-271v534h-38zM519 837l31 388l84 413h276l-203 -801h-188z" />
<glyph unicode="Z" horiz-adv-x="829" d="M33 0v240h732v-240h-732zM56 1399v239h741v-239h-741zM75 329l396 981h283l-408 -981h-271z" />
<glyph unicode="[" horiz-adv-x="723" d="M88 -410v2048h575v-129h-296v-1790h296v-129h-575z" />
<glyph unicode="\" horiz-adv-x="796" d="M14 1638l447 -2048h275l-448 2048h-274z" />
<glyph unicode="]" horiz-adv-x="723" d="M61 -281v-129h575v2048h-575v-129h296v-1790h-296z" />
<glyph unicode="^" horiz-adv-x="896" d="M88 897l268 514h184l267 -514h-181l-179 343l-177 -343h-182z" />
<glyph unicode="_" horiz-adv-x="1384" d="M61 -82h1262v-41h-1262v41z" />
<glyph unicode="`" horiz-adv-x="571" d="M82 1584h196l175 -273h-188z" />
<glyph unicode="a" horiz-adv-x="969" d="M59 313.5q0 27.5 2 45.5q6 81 37.5 140t97.5 104t178 85q27 10 53 19t52 17v-176q-10 -4 -19.5 -9t-20.5 -11q-65 -28 -84 -73t-21 -97q-2 -27 -1.5 -38.5t1.5 -32.5q9 -108 120 -108q15 0 25 3v-162q-48 -35 -130 -35h-5q-137 0 -204 64t-79 218q-2 19 -2 46.5zM97 830 v28q0 28 1 56q6 161 77.5 241t250.5 91v-209q-59 -18 -65 -91q-1 -16 -1 -55.5v-76.5t1 -47h-261q-2 20 -3 63zM554 1031v215q182 -12 251 -100q68 -87 68 -269v-5l-2 -872h-264v933q0 76 -53 98z" />
<glyph unicode="b" horiz-adv-x="1015" d="M100 0v1638h277v-1638h-277zM508 14v170q18 -5 42 -5q58 0 82 25t26 79q6 93 8 207q2 82 1 166v68q-1 118 -7 219q-3 52 -27 79.5t-83 27.5q-22 0 -42 -6v157q28 24 66 35.5t92 11.5q129 0 195.5 -75t73.5 -249q2 -59 3.5 -141t1.5 -170.5t-1.5 -169.5t-3.5 -138 q-8 -174 -83 -249t-204 -75h-5q-83 0 -135 33z" />
<glyph unicode="c" horiz-adv-x="942" d="M76 622q0 86 1.5 161.5t4.5 120.5q11 169 89.5 249.5t244.5 92.5v-210q-56 -16 -59 -91q-3 -126 -5 -230q-1 -52 -1 -103q-1 -52 1 -102q2 -101 5 -219q2 -77 59 -96v-212q-173 12 -248.5 93t-85.5 245q-2 54 -4 134q-1 60 -2 124v43zM545 -17v211q30 10 42 34.5t14 64.5 q2 34 2 73.5t-2 98.5h269q2 -18 2 -64q0 -15 1 -29q0 -28 -1 -51q-8 -167 -84 -247t-243 -91zM545 1035v211q167 -11 243.5 -89.5t83.5 -242.5q1 -24 1 -53q-1 -15 -1 -31q0 -48 -2 -63h-269q2 36 2 90t-2 88q-2 36 -14.5 58t-41.5 32z" />
<glyph unicode="d" horiz-adv-x="1016" d="M76 619q0 89 2 168.5t4 136.5q7 175 78 249.5t200 74.5q52 0 89 -11t66 -33v-161q-23 6 -48 7q-103 0 -109 -97q-9 -164 -9 -342t8 -327q3 -55 28 -80t82 -25q27 0 48 6v-158q-30 -23 -68 -34.5t-91 -11.5q-131 0 -198.5 75t-75.5 249q-2 61 -4 143q-1 62 -2 127v44z M640 0v1638h276v-1638h-276z" />
<glyph unicode="e" horiz-adv-x="941" d="M76 622q0 86 1.5 161.5t4.5 120.5q11 169 90 249.5t245 92.5v-210q-57 -17 -60 -91q-3 -126 -5 -230q-1 -52 -1 -103q-1 -52 1 -102q2 -101 5 -219q2 -77 60 -96v-212q-173 12 -249 93t-86 245q-2 54 -4 134q-1 60 -2 124v43zM452 568v188h151v116t-2 73q-3 70 -55 90 v211q166 -12 242 -90.5t84 -241.5q2 -24 2 -82v-62v-68q0 -72 -4 -134h-418zM546 -17v211q51 18 55 99q3 31 3 72v12q0 37 -3 88h269q2 -17 2 -64q0 -16 1 -30q0 -28 -1 -50q-8 -167 -84 -247t-242 -91z" />
<glyph unicode="f" horiz-adv-x="707" d="M28 1024v205h136v91q0 181 98.5 260.5t305.5 79.5q36 0 77.5 -4t80.5 -10v-198q-38 0 -77.5 0.5t-79.5 0.5q-130 0 -130 -109l2 -1340h-275l-2 1024h-136zM541 1024v205h135v-205h-135z" />
<glyph unicode="g" horiz-adv-x="1020" d="M67 788q0 52 3 116q12 169 92 250t249 92v-211q-74 -20 -76 -100q-3 -82 -3 -159q-1 -9 -1 -18q0 -68 4 -131q5 -80 77 -103v-214q-56 -4 -78.5 -18t-22.5 -40v-8q0 -26 18.5 -38.5t81.5 -18.5v-184q-112 -11 -128 -78q-5 -14 -4.5 -29.5t4.5 -27.5q16 -66 128 -76v-187 q-157 7 -228 55.5t-86 119.5q-3 13 -4.5 33t0.5 36q7 49 41.5 84.5t103.5 46.5v38q-131 19 -145 116q-3 23 -2 34.5t2 27.5q5 42 44 75.5t104 41.5v38q-82 36 -123 112t-48 194q-3 79 -3 131zM539 3v179q178 -10 268 -70t109 -172q2 -16 3.5 -39.5t-3.5 -50.5 q-18 -126 -121 -180.5t-256 -63.5v186q62 6 101 25.5t50 54.5q12 30 -2 62q-9 32 -48 48t-101 21zM539 314v211q68 23 71 95q5 65 5 139q0 7 -1 15q0 81 -4 165q-5 76 -71 95v212q208 -13 281 -135h39q15 116 159 118v-205h-30q-52 0 -81 -25t-29 -89v-56q1 -54 2 -94v-10 q0 -38 -4 -93q-10 -169 -88 -250.5t-249 -92.5z" />
<glyph unicode="h" horiz-adv-x="1034" d="M100 0v1638h277v-1638h-277zM506 1044v156q29 24 67 36t93 12q132 0 200 -75.5t69 -248.5l4 -924h-276l-4 947q0 102 -107 103q-25 0 -46 -6z" />
<glyph unicode="i" horiz-adv-x="483" d="M94 1424v214h284v-214h-284zM113 0v1229h271v-1229h-271z" />
<glyph unicode="j" horiz-adv-x="489" d="M-191 -217q30 -2 77 -3.5t83 -1.5q132 0 132 104v1347h278v-1321q-1 -182 -101 -261.5t-309 -79.5q-36 0 -79.5 4t-80.5 10v202zM104 1424v214h285v-214h-285z" />
<glyph unicode="k" horiz-adv-x="923" d="M100 0v743h272l102 266l121 220h284l-514 -913v-316h-265zM100 841v797h257v-373l-50 -424h-207zM499 359l166 283l263 -642h-283z" />
<glyph unicode="l" horiz-adv-x="472" d="M100 0v1638h272v-1638h-272z" />
<glyph unicode="m" horiz-adv-x="1550" d="M100 0v1229h274v-1229h-274zM502 1046v157q28 23 63.5 34t87.5 11q126 0 196.5 -75t70.5 -249v-924h-275v947q0 102 -105 103q-22 0 -38 -4zM1048 1047v161q29 18 63.5 29t78.5 11q126 0 195 -75t69 -249v-924h-272v947q0 54 -29.5 78.5t-79.5 24.5q-14 0 -25 -3z" />
<glyph unicode="n" horiz-adv-x="1034" d="M100 0v1229h272v-1229h-272zM501 1042v153q30 26 69 39.5t96 13.5q132 0 202 -75.5t71 -248.5v-924h-271v947q-1 102 -116 103q-22 0 -51 -8z" />
<glyph unicode="o" horiz-adv-x="978" d="M76 612.5q0 73.5 1.5 141.5t3.5 114q11 193 88 280t257 98v-211q-72 -23 -74 -100q-5 -135 -5 -303t6 -337q2 -82 73 -102v-210q-181 12 -258 100.5t-87 277.5q-2 44 -3.5 111t-1.5 140.5zM555 -17v210q69 19 71 102q4 121 6 224q1 52 0.5 102.5t-0.5 100.5 q-2 100 -6 214q-2 81 -71 100v210q184 -12 258.5 -101t84.5 -277q3 -62 4 -158v-96v-94q-1 -96 -4 -159q-11 -189 -86 -277.5t-257 -100.5z" />
<glyph unicode="p" horiz-adv-x="1015" d="M100 -410v1639h277v-1639h-277zM504 24v158q11 -3 30 -3q120 0 124 104q9 168 10 343v16q0 165 -10 311q-5 96 -108 97q-25 0 -46 -6v162q28 20 64.5 31t88.5 11q129 0 199.5 -75t78.5 -249q2 -54 3.5 -137.5t1.5 -174.5t-1.5 -173t-3.5 -134q-8 -174 -85.5 -249 t-206.5 -75q-82 0 -139 43z" />
<glyph unicode="q" horiz-adv-x="1016" d="M76 620q1 90 2 169.5t4 134.5q8 174 77.5 249t199.5 75q50 0 87 -10.5t65 -30.5v-163q-23 5 -44 6q-51 0 -80 -24.5t-32 -80.5q-4 -98 -5 -219q-1 -53 -1 -104q0 -68 1 -136q2 -117 7 -205q3 -52 36.5 -77t88.5 -25q17 0 29 3v-162q-53 -39 -130 -39h-4q-130 0 -208.5 75 t-86.5 249q-3 59 -4 142q-2 62 -2 128v45zM640 -410v1639h275v-1639h-275z" />
<glyph unicode="r" horiz-adv-x="745" d="M100 0v1229h279v-1229h-279zM508 1012v201q42 23 108 23q25 0 50 -2t42 -4v-206h-88q-68 0 -112 -12z" />
<glyph unicode="s" horiz-adv-x="896" d="M66 831v72q1 169 74.5 250.5t250.5 92.5v-210q-54 -16 -56 -91q0 -7 -1 -26.5t-1 -62.5q1 -51 18.5 -80.5t70.5 -41.5l128 -29q142 -33 214.5 -105t72.5 -210v-38t-1 -38q-1 -164 -77 -242.5t-252 -88.5v207q74 17 74 103q1 27 1 35v15.5t-1 32.5q0 41 -17.5 66.5 t-63.5 37.5l-144 37q-142 38 -215.5 108.5t-74.5 205.5zM72 406q1 40 3 59h242q-3 -57 -2 -94q-1 -5 -1 -11q0 -38 2 -69q4 -78 63 -97v-211q-161 12 -230 92t-76 246q-1 31 -1 58v27zM520 1034v212q159 -12 228.5 -90.5t76.5 -241.5q1 -16 0 -46.5t-1 -59.5t-2 -41h-251 q2 38 2 93.5t-2 84.5q-4 73 -51 89z" />
<glyph unicode="t" horiz-adv-x="703" d="M16 1024v205h119v348h276v-1284q0 -67 32 -88.5t113 -21.5q28 0 52.5 1t56.5 1v-194q-25 -6 -51.5 -8t-58.5 -2q-226 0 -323 78.5t-97 265.5v699h-119zM509 1024v205h133v-205h-133z" />
<glyph unicode="u" horiz-adv-x="1017" d="M82 305v924h273l3 -946q0 -103 108 -104q25 0 46 6v-160q-62 -44 -150 -44q-130 0 -205 75.5t-75 248.5zM641 0v1229h275v-1229h-275z" />
<glyph unicode="v" horiz-adv-x="905" d="M26 1229h280l85 -618l21 -310h-233zM201 200h283l28 411l87 618h281l-203 -1229h-441z" />
<glyph unicode="w" horiz-adv-x="1508" d="M30 1229h276l64 -618l23 -411h273l-21 -200h-444zM472 301l6 310l64 617h426l61 -617l23 -411h274l-29 -200h-444l-47 477l-27 550h-52l-27 -550l-22 -176h-206zM1130 301l8 310l64 618h276l-132 -928h-216z" />
<glyph unicode="x" horiz-adv-x="862" d="M18 0l166 455h206l-19 -146l-85 -309h-268zM32 1229h267l78 -257l29 -216h181l252 -756h-269l-82 309l-29 250h-186zM483 860l16 112l76 257h268l-152 -369h-208z" />
<glyph unicode="y" horiz-adv-x="928" d="M45 1229h281l80 -564l46 -465h266l-34 -200h-403zM76 -213q29 -2 75.5 -3.5t77.5 -1.5q71 0 109 15t46 57l7 42h275l-8 -41q-17 -94 -62.5 -157.5t-133.5 -95t-232 -31.5q-35 0 -75.5 4t-78.5 10v202zM520 304l26 361l62 564h281l-154 -925h-215z" />
<glyph unicode="z" horiz-adv-x="812" d="M43 0v200h725v-200h-725zM52 1028v200l723 1v-200zM102 299l332 629h283l-340 -629h-275z" />
<glyph unicode="{" horiz-adv-x="794" d="M61 496v231h86q57 0 89 19.5t32 102.5q0 23 -2 79.5t-4.5 124.5t-4 128t-1.5 89q0 137 64.5 217.5t172.5 115.5t240 35v-133q-54 0 -101.5 -32.5t-77 -86t-29.5 -116.5q0 -31 3 -95t6 -132t3 -111q0 -118 -49 -200.5t-150 -99.5v-39q101 -17 150 -99.5t49 -199.5 q0 -43 -3 -111t-6 -132t-3 -96q0 -62 29.5 -116t77 -87t101.5 -33v-132q-132 0 -240.5 35t-173.5 116t-65 217q0 30 2 89t5 127t5 123.5t2 78.5q0 83 -31.5 103t-89.5 20h-86z" />
<glyph unicode="|" horiz-adv-x="461" d="M88 -246l7 2110h272l7 -2110h-286z" />
<glyph unicode="}" horiz-adv-x="794" d="M62 -281v-132q132 0 240.5 35t173.5 116t65 217q0 30 -2 89t-5 127t-5 123.5t-2 78.5q0 83 31.5 103t89.5 20h86v231h-86q-57 0 -89 19.5t-32 102.5q0 23 2 79.5t4.5 124.5t4 128t1.5 89q0 137 -64.5 217.5t-172.5 115.5t-240 35v-133q54 0 101.5 -32.5t77 -86 t29.5 -116.5q0 -31 -3 -95t-6 -132t-3 -111q0 -118 49 -200.5t150 -99.5v-39q-101 -17 -150 -99.5t-49 -199.5q0 -43 3 -111t6 -132t3 -96q0 -62 -29.5 -116t-77 -87t-101.5 -33z" />
<glyph unicode="~" horiz-adv-x="1096" d="M88 610q11 174 91.5 247.5t198.5 70.5q71 -2 118.5 -22.5t83.5 -46.5t70.5 -46t77.5 -21q57 -1 91 25.5t37 77.5h153q-7 -163 -85.5 -234t-201.5 -69q-65 1 -112.5 21.5t-86.5 47t-75.5 47.5t-79.5 23q-55 2 -88 -30t-39 -91h-153z" />
<glyph unicode="&#xa1;" horiz-adv-x="534" d="M85 966h365v263h-365v-263zM131 264v-673h272v673l-35 546h-201z" />
<glyph unicode="&#xa2;" horiz-adv-x="942" d="M76.5 825q0.5 89 2 166t3.5 118q10 169 88.5 249.5t245.5 92.5v-210q-56 -16 -59 -91q-4 -126 -5 -230t0 -205.5t5 -218.5q2 -77 59 -97v-212q-169 12 -246.5 92t-87.5 246q-3 49 -4.5 130t-1 170zM355 0v127h240v-127h-240zM355 1513v125h240v-125h-240zM545 187v211 q30 10 42 35t14 65q1 32 1.5 71.5t-1.5 100.5h269q1 -18 2 -64t0 -81q-8 -167 -84.5 -247t-242.5 -91zM545 1240v211q167 -11 243.5 -89.5t83.5 -242.5q1 -34 0 -82.5t-2 -64.5h-269q2 36 1.5 91t-1.5 87q-2 36 -14.5 58t-41.5 32z" />
<glyph unicode="&#xa3;" horiz-adv-x="1059" d="M88 775v135h108q-26 81 -48 166t-21 204q1 162 84 260.5t266 113.5v-227q-76 -23 -76 -100q0 -102 27 -199.5t53.5 -209t26.5 -255.5q0 -180 -66 -323h-234q16 66 26 139t10 147q0 81 -14 149h-142zM138 0v239h833v-239h-833zM578 910h139v-135h-122q-6 74 -17 135z M606 1426v229q179 -11 260 -100.5t86 -276.5q1 -42 1.5 -72t-0.5 -68.5t-2 -104.5h-274q1 37 1.5 98t0.5 117.5t-1 78.5q-1 77 -72 99z" />
<glyph unicode="&#xa4;" horiz-adv-x="1216" d="M88 1466l108 96l154 -171q70 36 185 43v-211q-72 -22 -74 -101q-5 -135 -5 -303t6 -336q3 -83 73 -103v-209q-114 7 -185 43l-142 -166l-113 96l150 172q-47 83 -56 233q-2 45 -3.5 111.5t-1.5 140t1.5 141.5t3.5 115q9 151 56 232zM664 171v209q69 19 70 102 q4 122 5.5 224.5t0 202.5t-5.5 214q-2 82 -70 101v210q122 -8 194 -50l162 175l107 -100l-170 -180q22 -42 33.5 -98t16.5 -124q3 -62 4 -158t0 -191.5t-4 -158.5q-4 -71 -16.5 -127t-35.5 -99l154 -178l-111 -97l-146 168q-70 -38 -188 -45z" />
<glyph unicode="&#xa5;" horiz-adv-x="931" d="M22 1638h276l84 -413l40 -479h250l-32 -135h147v-135h-202v-115h202v-136h-202v-225h-271v225h-188v136h188v115h-188v135h133zM519 837l31 388l84 413h276l-203 -801h-188z" />
<glyph unicode="&#xa6;" horiz-adv-x="448" d="M88 -246v795h272v-795h-272zM88 1040v824h272v-824h-272z" />
<glyph unicode="&#xa7;" horiz-adv-x="953" d="M88 1249q0 50 3 86q11 113 42 177.5t98 93t186 32.5v-223q-29 -6 -40.5 -23t-16.5 -54q-3 -29 -4 -82t2 -99q2 -40 12 -66t47 -40v-270q-32 -12 -47.5 -37t-18.5 -58q-6 -56 -5 -112t5 -101q5 -35 20 -60t46 -37v-218q-167 46 -244.5 114t-81.5 194q-4 101 0 218 q3 96 45.5 156.5t106.5 87.5v38q-62 20 -104.5 62.5t-48.5 130.5q-2 40 -2 90zM97 -58.5q0 35.5 0.5 68.5t2.5 45h243q-3 -67 -2.5 -99.5t1.5 -74.5q4 -84 75 -101v-208q-167 7 -239.5 74t-79.5 237q-1 23 -1 58.5zM546 123v251q35 11 49 37t18 62q6 47 6.5 105.5 t-6.5 107.5q-4 34 -18 60t-49 37v237q154 -35 230.5 -116.5t85.5 -227.5q3 -70 3 -111t-4 -96q-5 -82 -45.5 -136t-100.5 -78v-31q67 -24 106.5 -77t42.5 -130q1 -31 0 -68.5t-3 -64.5q-11 -160 -79.5 -230t-235.5 -81v213q59 19 60 97q0 37 0.5 72t-0.5 72q0 37 -10.5 60 t-49.5 36zM546 1414v223q160 -11 228.5 -89.5t75.5 -240.5q2 -27 2.5 -75.5t-4.5 -89.5h-251q2 47 2 106.5t-2 87.5q-4 68 -51 78z" />
<glyph unicode="&#xa8;" horiz-adv-x="726" d="M123 1311v186h186v-186h-186zM418 1311v186h186v-186h-186z" />
<glyph unicode="&#xa9;" horiz-adv-x="1380" d="M88 614q0 293 142 452t413 172v-130q-199 -13 -302 -138.5t-103 -355.5q0 -229 103 -354.5t302 -138.5v-130q-271 13 -413 171.5t-142 451.5zM440 550q0 64 0.5 127t1.5 94q6 109 54 160.5t147 60.5v-136q-29 -13 -30 -60q-5 -83 -3 -181t3 -185q0 -48 30 -61v-137 q-99 8 -146 59.5t-55 159.5q-2 35 -2 99zM737 -9v130q199 13 302.5 138.5t103.5 354.5t-103.5 355t-302.5 139v130q271 -13 412.5 -172t141.5 -452t-141 -451.5t-413 -171.5zM737 231v137q30 12 32 62q2 18 2 35t-2 50h165q2 -13 2.5 -29t-0.5 -36q-7 -108 -52.5 -159.5 t-146.5 -59.5zM737 857v135q102 -8 147 -58.5t52 -154.5q1 -18 0.5 -36.5t-2.5 -28.5h-165q2 17 1 42.5t-1 41.5q0 46 -32 59z" />
<glyph unicode="&#xaa;" horiz-adv-x="827" d="M90 977q-3 26 0 63q11 112 91 162.5t213 85.5v-135q-49 -18 -67.5 -46t-22.5 -65q-1 -12 -0.5 -26.5t1.5 -20.5q1 -37 27 -53t62 -16v-143q-118 -42 -202 10.5t-102 183.5zM119 1357q-2 35 1 65q6 105 59 162.5t183 70.5v-169q-28 -14 -31 -52q-1 -5 -1 -33t1 -54.5 t2 -31.5h-211q-1 7 -3 42zM490 1489v167q142 -10 193.5 -76t55.5 -202v-595h-216v645q-1 20 -7 36t-26 25z" />
<glyph unicode="&#xab;" horiz-adv-x="831" d="M26 518v250l353 342v-250l-223 -217l223 -217v-250zM390 518v250l353 342v-250l-223 -217l223 -217v-250z" />
<glyph unicode="&#xac;" horiz-adv-x="1057" d="M88 824v205h882v-582h-209v377h-673z" />
<glyph unicode="&#xad;" horiz-adv-x="864" d="M61 618v239h777v-239h-777z" />
<glyph unicode="&#xae;" horiz-adv-x="975" d="M88 1406q0 181 86.5 283.5t250.5 118.5v-84q-252 -30 -252 -318t252 -317v-84q-164 17 -250.5 120t-86.5 281zM370 1204v434h96v-434h-96zM507 1365v84q30 4 31 35v46q-1 23 -31 26v82q63 -2 93 -28.5t33 -85.5v-31q-1 -67 -70 -83v-13q65 -15 68 -84q1 -23 2.5 -49.5 t-0.5 -59.5h-95q1 28 -1 61.5t-2 60.5q0 32 -28 39zM554 1005v84q249 29 249 317q0 289 -249 318v84q163 -16 248.5 -118.5t85.5 -283.5q0 -178 -85.5 -281t-248.5 -120z" />
<glyph unicode="&#xaf;" horiz-adv-x="961" d="M110 1311v135h682v-135h-682z" />
<glyph unicode="&#xb0;" horiz-adv-x="625" d="M88 1434q0 80 51 141.5t127 78.5v-117q-66 -30 -65 -103q0 -73 65 -102v-117q-76 17 -127 78.5t-51 140.5zM360 1215v118q29 13 47 40.5t18 60.5q0 35 -18 62t-47 40v118q75 -16 126 -78.5t51 -141.5q0 -78 -51 -140t-126 -79z" />
<glyph unicode="&#xb1;" horiz-adv-x="1098" d="M88 226v165h923v-165h-923zM88 643v204h357v215h208v-215h358v-204h-358v-163h-208v163h-357z" />
<glyph unicode="&#xb2;" horiz-adv-x="667" d="M75 1005q0 28 2 57q2 71 52.5 124t135.5 89l85 36q32 13 41.5 29t12.5 40q3 35 0 73q-3 18 -17 28v164q219 -20 220 -218v-20v-25q0 -77 -47 -128t-131 -84l-101 -39q-16 -9 -29.5 -20.5t-13.5 -25.5v-186h-208q-2 78 -2 106zM77 1383q-1 18 1 44q5 100 61 154t154 64 v-166q-14 -9 -15 -26q-3 -28 -1.5 -61.5t3.5 -48.5h-200q-2 22 -3 40zM379 899v171h208v-171h-208z" />
<glyph unicode="&#xb3;" horiz-adv-x="675" d="M60.5 1114.5q0.5 8.5 1.5 23.5h202q-3 -9 -2.5 -20t0.5 -20q0 -29 26 -41v-165q-110 10 -168.5 62t-58.5 143q-1 9 -0.5 17.5zM80 1467v171h516l-1 -171h-515zM201 1344l53 60h228l-53 -56q86 -11 133.5 -59.5t47.5 -136.5q1 -31 0 -57q-1 -187 -228 -204v164 q25 10 26 37q1 30 0 57q-1 53 -75 53h-126z" />
<glyph unicode="&#xb4;" horiz-adv-x="565" d="M90 1311l191 273h195l-200 -273h-186z" />
<glyph unicode="&#xb5;" horiz-adv-x="1044" d="M88 1229h274l3 -946q1 -103 111 -104q22 0 43 6v-161q-29 -19 -60.5 -31t-69.5 -12q-14 0 -22 4v-395h-275zM647 233v996h276v-987q0 -77 8 -141t24 -101h-274q-11 25 -22.5 94.5t-11.5 138.5z" />
<glyph unicode="&#xb6;" horiz-adv-x="1163" d="M88.5 1155q0.5 37 1 68t0.5 38q7 137 48 220t127 120t229 37h243v-1843h-171v917h-72q-131 0 -217.5 32.5t-132 115t-54.5 232.5q-2 26 -1.5 63zM811 -205v1843h264v-146h-93v-1697h-171z" />
<glyph unicode="&#xb7;" horiz-adv-x="373" d="M85 754v202h204v-202h-204z" />
<glyph unicode="&#xb8;" horiz-adv-x="503" d="M78 -204h61q60 0 85 25t17 83l-17 96h144l16 -96q18 -126 -41 -183t-204 -57h-61v132z" />
<glyph unicode="&#xb9;" horiz-adv-x="441" d="M29 1546l165 94h163v-737h-209v577h-115z" />
<glyph unicode="&#xba;" horiz-adv-x="837" d="M89 1275.5q1 62.5 4 99.5q12 136 66.5 203t190.5 78v-168q-38 -16 -40 -60q-4 -84 -5.5 -144.5t0 -124.5t5.5 -158q2 -44 40 -61v-167q-132 11 -191 75.5t-66 206.5q-2 35 -3.5 96.5t-0.5 124zM479 772v163q47 15 49 66q6 127 6.5 221t-6.5 209q-2 46 -49 61v164 q143 -12 201 -79.5t66 -201.5q2 -38 3.5 -101.5t1 -125.5t-4.5 -93q-12 -134 -66 -203t-201 -80z" />
<glyph unicode="&#xbb;" horiz-adv-x="779" d="M36 176l353 342v250l-353 342v-250l223 -217l-223 -217v-250zM400 176l353 342v250l-353 342v-250l223 -217l-223 -217v-250z" />
<glyph unicode="&#xbc;" horiz-adv-x="1225" d="M-146 0l1050 1638h191l-1051 -1638h-190zM29 1546l165 94h163v-737h-209v577h-115zM545 157v162l97 264h182l-78 -257h36v-169h-237zM843 0v737h189v-737h-189zM1094 157v169h90v-169h-90z" />
<glyph unicode="&#xbd;" horiz-adv-x="1201" d="M-146 0l1050 1638h191l-1051 -1638h-190zM29 1546l165 94h163v-737h-209v577h-115zM609 106q0 28 2 57q2 71 52.5 124t135.5 89l85 36q32 13 41.5 29t12.5 40q3 35 0 73q-3 18 -17 28v164q219 -20 220 -218v-20v-25q0 -77 -47 -128t-131 -84l-101 -39q-16 -9 -29.5 -20.5 t-13.5 -25.5v-186h-208q-2 78 -2 106zM611 484q-1 18 1 44q5 100 61 154t154 64v-166q-14 -9 -15 -26q-3 -28 -1.5 -61.5t3.5 -48.5h-200q-2 22 -3 40zM913 0v171h208v-171h-208z" />
<glyph unicode="&#xbe;" horiz-adv-x="1528" d="M60.5 1114.5q0.5 8.5 1.5 23.5h202q-3 -9 -2.5 -20t0.5 -20q0 -29 26 -41v-165q-110 10 -168.5 62t-58.5 143q-1 9 -0.5 17.5zM80 1467v171h516l-1 -171h-515zM157 0l1050 1638h191l-1051 -1638h-190zM201 1344l53 60h228l-53 -56q86 -11 133.5 -59.5t47.5 -136.5 q1 -31 0 -57q-1 -187 -228 -204v164q25 10 26 37q1 30 0 57q-1 53 -75 53h-126zM847 157v162l97 264h182l-78 -257h36v-169h-237zM1145 0v737h189v-737h-189zM1396 157v169h90v-169h-90z" />
<glyph unicode="&#xbf;" horiz-adv-x="990" d="M54.5 51.5q-0.5 40.5 0.5 81.5q0 113 21 181.5t53.5 106.5t67.5 57t65 33l53 26q47 24 56 63.5t16 82.5l8 99h231l5 -99q6 -80 -4 -140t-49.5 -112.5t-122.5 -104.5l-38 -24q-39 -24 -49 -72t-10 -98v-215q0 -77 79 -98v-249q-204 11 -293 106.5t-89 295.5 q0 39 -0.5 79.5zM325 966v263h364v-263h-364zM565 -178q66 24 71 95q4 62 4 129.5t-3 120.5h295q2 -48 3 -77t1 -55t-2 -63q-11 -200 -96 -295t-273 -107v252z" />
<glyph unicode="&#xc0;" horiz-adv-x="988" d="M41 0l215 1638h482l28 -239h-308l-16 -422l-44 -366h149l-64 -238h-110l-54 -373h-278zM191 1994h196l175 -273h-188zM542 1299h232l173 -1299h-278l-114 978z" />
<glyph unicode="&#xc1;" horiz-adv-x="988" d="M41 0l215 1638h482l28 -239h-308l-16 -422l-44 -366h149l-64 -238h-110l-54 -373h-278zM411 1721l191 273h195l-200 -273h-186zM542 1299h232l173 -1299h-278l-114 978z" />
<glyph unicode="&#xc2;" horiz-adv-x="988" d="M41 0l215 1638h482l28 -239h-308l-16 -422l-44 -366h149l-64 -238h-110l-54 -373h-278zM230 1723l177 273h166l177 -273h-182l-78 132l-78 -132h-182zM542 1299h232l173 -1299h-278l-114 978z" />
<glyph unicode="&#xc3;" horiz-adv-x="988" d="M41 0l215 1638h482l28 -239h-308l-16 -422l-44 -366h149l-64 -238h-110l-54 -373h-278zM166 1737q8 115 62.5 168t143.5 52q66 -1 105.5 -24t71.5 -46t74 -23q40 -1 64.5 18t25.5 52h109q-5 -113 -60.5 -162t-142.5 -48q-61 0 -102.5 23.5t-75.5 46.5t-76 24 q-79 2 -89 -81h-110zM542 1299h232l173 -1299h-278l-114 978z" />
<glyph unicode="&#xc4;" horiz-adv-x="988" d="M41 0l215 1638h482l28 -239h-308l-16 -422l-44 -366h149l-64 -238h-110l-54 -373h-278zM254 1721v186h186v-186h-186zM542 1299h232l173 -1299h-278l-114 978zM549 1721v186h186v-186h-186z" />
<glyph unicode="&#xc5;" horiz-adv-x="988" d="M41 0l215 1638h482l28 -239h-308l-16 -422l-44 -366h149l-64 -238h-110l-54 -373h-278zM288 1917q0 85 60.5 146t145.5 61q86 0 146.5 -61t60.5 -146t-60.5 -146t-146.5 -61q-85 0 -145.5 61t-60.5 146zM430 1917q0 -27 18.5 -45t45.5 -18q28 0 46 18.5t18 44.5 q0 28 -18.5 46.5t-45.5 18.5t-45.5 -18.5t-18.5 -46.5zM542 1299h232l173 -1299h-278l-114 978z" />
<glyph unicode="&#xc6;" horiz-adv-x="1424" d="M41 0l330 1638h996v-238h-789l-54 -500l-61 -291h145l-64 -238h-131l-76 -371h-296zM669 0v1271h271v-1271h-271zM1070 0v240h297v-240h-297zM1070 712v239h277v-239h-277z" />
<glyph unicode="&#xc7;" horiz-adv-x="1006" d="M88 672q-1 147 0 295t4 314q3 181 89 271t268 103v-229q-83 -20 -85 -133q-6 -250 -6.5 -474t6.5 -473q2 -114 85 -135v-228q-185 11 -269 99.5t-88 277.5q-3 165 -4 312zM290 -270h61q60 0 85 25t17 83l-17 96h144l16 -96q18 -126 -41 -183t-204 -57h-61v132zM578 -17 v227q82 23 87 136q3 68 2.5 124.5t-3.5 137.5h271q2 -61 2 -126.5t-2 -121.5q-5 -188 -89 -276.5t-268 -100.5zM578 1425v230q175 -14 259.5 -106t89.5 -270q2 -57 1 -121t-3 -123h-271q2 63 2.5 129t-0.5 129q-3 110 -78 132z" />
<glyph unicode="&#xc8;" horiz-adv-x="863" d="M108 0v1638h271v-1638h-271zM154 1993h196l175 -273h-188zM509 0v240h297v-240h-297zM509 712v239h276v-239h-276zM509 1399v239h297v-239h-297z" />
<glyph unicode="&#xc9;" horiz-adv-x="863" d="M108 0v1638h271v-1638h-271zM374 1720l191 273h195l-200 -273h-186zM509 0v240h297v-240h-297zM509 712v239h276v-239h-276zM509 1399v239h297v-239h-297z" />
<glyph unicode="&#xca;" horiz-adv-x="863" d="M108 0v1638h271v-1638h-271zM193 1722l177 273h166l177 -273h-182l-78 132l-78 -132h-182zM509 0v240h297v-240h-297zM509 712v239h276v-239h-276zM509 1399v239h297v-239h-297z" />
<glyph unicode="&#xcb;" horiz-adv-x="863" d="M108 0v1638h271v-1638h-271zM217 1720v186h186v-186h-186zM509 0v240h297v-240h-297zM509 712v239h276v-239h-276zM509 1399v239h297v-239h-297zM512 1720v186h186v-186h-186z" />
<glyph unicode="&#xcc;" horiz-adv-x="486" d="M-60 1994h196l175 -273h-188zM108 0v1638h271v-1638h-271z" />
<glyph unicode="&#xcd;" horiz-adv-x="486" d="M108 0v1638h271v-1638h-271zM160 1721l191 273h195l-200 -273h-186z" />
<glyph unicode="&#xce;" horiz-adv-x="486" d="M-21 1723l177 273h166l177 -273h-182l-78 132l-78 -132h-182zM108 0v1638h271v-1638h-271z" />
<glyph unicode="&#xcf;" horiz-adv-x="486" d="M3 1721v186h186v-186h-186zM108 0v1638h271v-1638h-271zM298 1721v186h186v-186h-186z" />
<glyph unicode="&#xd0;" horiz-adv-x="1115" d="M108 764v205h96v669h271v-1638h-271v764h-96zM524 764v205h135v-205h-135zM603 0v240h14q131 0 135 113q6 243 6 466.5t-6 466.5q-3 113 -137 113h-12v239h12q213 0 308.5 -89t99.5 -294q3 -156 4 -295.5t0 -279t-4 -295.5q-4 -206 -99 -295.5t-307 -89.5h-14z" />
<glyph unicode="&#xd1;" horiz-adv-x="1208" d="M108 0v1304h215l33 -676l23 -628h-271zM108 1401v237h464l113 -527l119 -871h296v-240h-484l-115 549l-93 852h-300zM276 1737q8 115 62.5 168t143.5 52q66 -1 105.5 -24t71.5 -46t74 -23q40 -1 64.5 18t25.5 52h109q-5 -113 -60.5 -162t-142.5 -48q-61 0 -102.5 23.5 t-75.5 46.5t-76 24q-79 2 -89 -81h-110zM827 1638h273v-1301h-216l-36 630z" />
<glyph unicode="&#xd2;" d="M88 675q-1 146 0 291.5t4 310.5q4 189 87.5 278.5t270.5 99.5v-228q-81 -23 -83 -136q-10 -246 -10.5 -469.5t10.5 -472.5q2 -116 83 -138v-227q-186 10 -270 99.5t-88 278.5q-3 167 -4 313zM209 1994h196l175 -273h-188zM579 -16v227q80 22 81 138q10 247 10.5 470.5 t-10.5 471.5q-2 115 -81 136v228q179 -12 261 -101.5t88 -276.5q6 -166 8 -311.5t0 -291.5t-8 -312q-6 -188 -88 -277t-261 -101z" />
<glyph unicode="&#xd3;" d="M88 675q-1 146 0 291.5t4 310.5q4 189 87.5 278.5t270.5 99.5v-228q-81 -23 -83 -136q-10 -246 -10.5 -469.5t10.5 -472.5q2 -116 83 -138v-227q-186 10 -270 99.5t-88 278.5q-3 167 -4 313zM429 1721l191 273h195l-200 -273h-186zM579 -16v227q80 22 81 138 q10 247 10.5 470.5t-10.5 471.5q-2 115 -81 136v228q179 -12 261 -101.5t88 -276.5q6 -166 8 -311.5t0 -291.5t-8 -312q-6 -188 -88 -277t-261 -101z" />
<glyph unicode="&#xd4;" d="M88 675q-1 146 0 291.5t4 310.5q4 189 87.5 278.5t270.5 99.5v-228q-81 -23 -83 -136q-10 -246 -10.5 -469.5t10.5 -472.5q2 -116 83 -138v-227q-186 10 -270 99.5t-88 278.5q-3 167 -4 313zM249 1723l177 273h166l177 -273h-182l-78 132l-78 -132h-182zM579 -16v227 q80 22 81 138q10 247 10.5 470.5t-10.5 471.5q-2 115 -81 136v228q179 -12 261 -101.5t88 -276.5q6 -166 8 -311.5t0 -291.5t-8 -312q-6 -188 -88 -277t-261 -101z" />
<glyph unicode="&#xd5;" d="M88 675q-1 146 0 291.5t4 310.5q4 189 87.5 278.5t270.5 99.5v-228q-81 -23 -83 -136q-10 -246 -10.5 -469.5t10.5 -472.5q2 -116 83 -138v-227q-186 10 -270 99.5t-88 278.5q-3 167 -4 313zM185 1737q8 115 62.5 168t143.5 52q66 -1 105.5 -24t71.5 -46t74 -23 q40 -1 64.5 18t25.5 52h109q-5 -113 -60.5 -162t-142.5 -48q-61 0 -102.5 23.5t-75.5 46.5t-76 24q-79 2 -89 -81h-110zM579 -16v227q80 22 81 138q10 247 10.5 470.5t-10.5 471.5q-2 115 -81 136v228q179 -12 261 -101.5t88 -276.5q6 -166 8 -311.5t0 -291.5t-8 -312 q-6 -188 -88 -277t-261 -101z" />
<glyph unicode="&#xd6;" d="M88 675q-1 146 0 291.5t4 310.5q4 189 87.5 278.5t270.5 99.5v-228q-81 -23 -83 -136q-10 -246 -10.5 -469.5t10.5 -472.5q2 -116 83 -138v-227q-186 10 -270 99.5t-88 278.5q-3 167 -4 313zM273 1721v186h186v-186h-186zM568 1721v186h186v-186h-186zM579 -16v227 q80 22 81 138q10 247 10.5 470.5t-10.5 471.5q-2 115 -81 136v228q179 -12 261 -101.5t88 -276.5q6 -166 8 -311.5t0 -291.5t-8 -312q-6 -188 -88 -277t-261 -101z" />
<glyph unicode="&#xd7;" horiz-adv-x="986" d="M88 505l255 239l-255 241l148 143l257 -242l257 242l147 -143l-255 -241l255 -239l-147 -145l-257 243l-257 -243z" />
<glyph unicode="&#xd8;" d="M88 675q-1 146 0 291.5t4 310.5q4 189 87.5 278.5t270.5 99.5v-228q-81 -23 -83 -136q-10 -246 -10.5 -469.5t10.5 -472.5q2 -116 83 -138v-227q-186 10 -270 99.5t-88 278.5q-3 167 -4 313zM430 447v350l173 254v-350zM579 -16v227q80 22 81 138q10 247 10.5 470.5 t-10.5 471.5q-2 115 -81 136v228q179 -12 261 -101.5t88 -276.5q6 -166 8 -311.5t0 -291.5t-8 -312q-6 -188 -88 -277t-261 -101z" />
<glyph unicode="&#xd9;" horiz-adv-x="1020" d="M89 998.5q0 321.5 4 639.5h272q-6 -318 -5 -654.5t4 -654.5q0 -93 83 -116v-229q-186 11 -268.5 99.5t-85.5 275.5q-4 318 -4 639.5zM207 1994h196l175 -273h-188zM575 -16v229q81 24 81 116q3 318 5 654.5t-5 654.5h272q4 -318 4 -639t-4 -640q-3 -187 -85.5 -275.5 t-267.5 -99.5z" />
<glyph unicode="&#xda;" horiz-adv-x="1020" d="M89 998.5q0 321.5 4 639.5h272q-6 -318 -5 -654.5t4 -654.5q0 -93 83 -116v-229q-186 11 -268.5 99.5t-85.5 275.5q-4 318 -4 639.5zM428 1721l191 273h195l-200 -273h-186zM575 -16v229q81 24 81 116q3 318 5 654.5t-5 654.5h272q4 -318 4 -639t-4 -640 q-3 -187 -85.5 -275.5t-267.5 -99.5z" />
<glyph unicode="&#xdb;" horiz-adv-x="1020" d="M89 998.5q0 321.5 4 639.5h272q-6 -318 -5 -654.5t4 -654.5q0 -93 83 -116v-229q-186 11 -268.5 99.5t-85.5 275.5q-4 318 -4 639.5zM248 1723l177 273h166l177 -273h-182l-78 132l-78 -132h-182zM575 -16v229q81 24 81 116q3 318 5 654.5t-5 654.5h272q4 -318 4 -639 t-4 -640q-3 -187 -85.5 -275.5t-267.5 -99.5z" />
<glyph unicode="&#xdc;" horiz-adv-x="1020" d="M89 998.5q0 321.5 4 639.5h272q-6 -318 -5 -654.5t4 -654.5q0 -93 83 -116v-229q-186 11 -268.5 99.5t-85.5 275.5q-4 318 -4 639.5zM271 1721v186h186v-186h-186zM566 1721v186h186v-186h-186zM575 -16v229q81 24 81 116q3 318 5 654.5t-5 654.5h272q4 -318 4 -639 t-4 -640q-3 -187 -85.5 -275.5t-267.5 -99.5z" />
<glyph unicode="&#xdd;" horiz-adv-x="931" d="M22 1638h276l84 -413l40 -479h250l-51 -212h-36v-534h-271v534h-38zM368 1721l191 273h195l-200 -273h-186zM519 837l31 388l84 413h276l-203 -801h-188z" />
<glyph unicode="&#xde;" horiz-adv-x="977" d="M108 0v1638h271v-1638h-271zM507 292v238h17q128 0 134 113q4 89 5 192t-5 192q-6 113 -134 113h-17v239h17q211 0 305 -85t100 -280q4 -99 4 -181.5t-4 -175.5q-7 -196 -101 -280.5t-304 -84.5h-17z" />
<glyph unicode="&#xdf;" horiz-adv-x="1018" d="M100 0v1260q0 109 30.5 189.5t106 128.5t212.5 57v-228q-37 -13 -53.5 -41t-16.5 -66v-1300h-279zM474 0v239h43q146 0 149 136q2 79 0 154q-1 111 -42 147t-111 36h-29v239h21q148 0 149 168q1 41 0.5 65t-1 49t-0.5 66q-1 86 -75 110v228q187 -10 269 -97.5t83 -271.5 q0 -44 0.5 -75t-2.5 -80q-7 -110 -50 -171.5t-132 -88.5v-42q97 -28 144 -92t52 -177q1 -50 2 -80t-2 -91q-7 -144 -57 -224.5t-142.5 -113.5t-225.5 -33h-43z" />
<glyph unicode="&#xe0;" horiz-adv-x="969" d="M59 313.5q0 27.5 2 45.5q6 81 37.5 140t97.5 104t178 85q27 10 53 19t52 17v-176q-10 -4 -19.5 -9t-20.5 -11q-65 -28 -84 -73t-21 -97q-2 -27 -1.5 -38.5t1.5 -32.5q9 -108 120 -108q15 0 25 3v-162q-49 -36 -135 -35q-137 0 -204 64t-79 218q-2 19 -2 46.5zM97 830 q-1 43 1 84q6 161 77.5 241t250.5 91v-209q-59 -18 -65 -91q-1 -16 -1 -55.5v-76.5t1 -47h-261q-2 20 -3 63zM187 1584h196l175 -273h-188zM554 1031v215q182 -12 251 -100.5t68 -273.5l-2 -872h-264v933q0 76 -53 98z" />
<glyph unicode="&#xe1;" horiz-adv-x="969" d="M59 313.5q0 27.5 2 45.5q6 81 37.5 140t97.5 104t178 85q27 10 53 19t52 17v-176q-10 -4 -19.5 -9t-20.5 -11q-65 -28 -84 -73t-21 -97q-2 -27 -1.5 -38.5t1.5 -32.5q9 -108 120 -108q15 0 25 3v-162q-49 -36 -135 -35q-137 0 -204 64t-79 218q-2 19 -2 46.5zM97 830 q-1 43 1 84q6 161 77.5 241t250.5 91v-209q-59 -18 -65 -91q-1 -16 -1 -55.5v-76.5t1 -47h-261q-2 20 -3 63zM408 1311l191 273h195l-200 -273h-186zM554 1031v215q182 -12 251 -100.5t68 -273.5l-2 -872h-264v933q0 76 -53 98z" />
<glyph unicode="&#xe2;" horiz-adv-x="969" d="M59 313.5q0 27.5 2 45.5q6 81 37.5 140t97.5 104t178 85q27 10 53 19t52 17v-176q-10 -4 -19.5 -9t-20.5 -11q-65 -28 -84 -73t-21 -97q-2 -27 -1.5 -38.5t1.5 -32.5q9 -108 120 -108q15 0 25 3v-162q-49 -36 -135 -35q-137 0 -204 64t-79 218q-2 19 -2 46.5zM97 830 q-1 43 1 84q6 161 77.5 241t250.5 91v-209q-59 -18 -65 -91q-1 -16 -1 -55.5v-76.5t1 -47h-261q-2 20 -3 63zM227 1313l177 273h166l177 -273h-182l-78 132l-78 -132h-182zM554 1031v215q182 -12 251 -100.5t68 -273.5l-2 -872h-264v933q0 76 -53 98z" />
<glyph unicode="&#xe3;" horiz-adv-x="969" d="M59 313.5q0 27.5 2 45.5q6 81 37.5 140t97.5 104t178 85q27 10 53 19t52 17v-176q-10 -4 -19.5 -9t-20.5 -11q-65 -28 -84 -73t-21 -97q-2 -27 -1.5 -38.5t1.5 -32.5q9 -108 120 -108q15 0 25 3v-162q-49 -36 -135 -35q-137 0 -204 64t-79 218q-2 19 -2 46.5zM97 830 q-1 43 1 84q6 161 77.5 241t250.5 91v-209q-59 -18 -65 -91q-1 -16 -1 -55.5v-76.5t1 -47h-261q-2 20 -3 63zM164 1327q8 115 62.5 168t143.5 52q66 -1 105.5 -24t71.5 -46t74 -23q40 -1 64.5 18t25.5 52h109q-5 -113 -60.5 -162t-142.5 -48q-61 0 -102.5 23.5t-75.5 46.5 t-76 24q-79 2 -89 -81h-110zM554 1031v215q182 -12 251 -100.5t68 -273.5l-2 -872h-264v933q0 76 -53 98z" />
<glyph unicode="&#xe4;" horiz-adv-x="969" d="M59 313.5q0 27.5 2 45.5q6 81 37.5 140t97.5 104t178 85q27 10 53 19t52 17v-176q-10 -4 -19.5 -9t-20.5 -11q-65 -28 -84 -73t-21 -97q-2 -27 -1.5 -38.5t1.5 -32.5q9 -108 120 -108q15 0 25 3v-162q-49 -36 -135 -35q-137 0 -204 64t-79 218q-2 19 -2 46.5zM97 830 q-1 43 1 84q6 161 77.5 241t250.5 91v-209q-59 -18 -65 -91q-1 -16 -1 -55.5v-76.5t1 -47h-261q-2 20 -3 63zM251 1311v186h186v-186h-186zM546 1311v186h186v-186h-186zM554 1031v215q182 -12 251 -100.5t68 -273.5l-2 -872h-264v933q0 76 -53 98z" />
<glyph unicode="&#xe5;" horiz-adv-x="969" d="M59 313.5q0 27.5 2 45.5q6 81 37.5 140t97.5 104t178 85q27 10 53 19t52 17v-176q-10 -4 -19.5 -9t-20.5 -11q-65 -28 -84 -73t-21 -97q-2 -27 -1.5 -38.5t1.5 -32.5q9 -108 120 -108q15 0 25 3v-162q-49 -36 -135 -35q-137 0 -204 64t-79 218q-2 19 -2 46.5zM97 830 q-1 43 1 84q6 161 77.5 241t250.5 91v-209q-59 -18 -65 -91q-1 -16 -1 -55.5v-76.5t1 -47h-261q-2 20 -3 63zM285 1507q0 85 60.5 146t145.5 61q86 0 146.5 -61t60.5 -146t-60.5 -146t-146.5 -61q-85 0 -145.5 61t-60.5 146zM427 1507q0 -27 18.5 -45t45.5 -18q28 0 46 18.5 t18 44.5q0 28 -18.5 46.5t-45.5 18.5t-45.5 -18.5t-18.5 -46.5zM554 1031v215q182 -12 251 -100.5t68 -273.5l-2 -872h-264v933q0 76 -53 98z" />
<glyph unicode="&#xe6;" horiz-adv-x="1388" d="M60 833.5q-1 49.5 1 82.5q6 158 77 238t242 92v-211q-46 -16 -50 -90q-1 -32 -1.5 -89.5t1.5 -88.5h-268q-1 17 -2 66.5zM62 265q-3 53 0 94q12 146 116.5 222t275.5 130v-180q-111 -47 -122 -173q-1 -17 -1 -35t3 -37q8 -54 35 -79v-221q-77 1 -144.5 29.5t-111 89.5 t-51.5 160zM461 9v180q32 13 57 57t30 140v550q0 30 -8.5 54t-31.5 38v218q117 -9 181 -49q70 40 185 49v-211q-57 -18 -57 -90v-652q0 -79 61 -99v-211q-214 15 -287 145h-23q-42 -89 -107 -119zM945 571v189h108q0 62 -0.5 114.5t-1.5 71.5q-3 68 -47 87v213 q159 -12 234 -90t82 -242q1 -24 1.5 -81t0 -127t-3.5 -135h-373zM1007 -17v215q25 12 33.5 35.5t10.5 57.5q3 58 3 94t-2 80h266q2 -15 2.5 -63t-0.5 -81q-7 -166 -80.5 -246t-232.5 -92z" />
<glyph unicode="&#xe7;" horiz-adv-x="942" d="M76.5 621.5q0.5 86.5 1.5 162t4 120.5q11 169 89.5 249.5t244.5 92.5v-210q-56 -16 -59 -91q-3 -126 -4.5 -230t0 -205t4.5 -219q2 -77 59 -96v-212q-173 12 -248.5 93t-85.5 245q-3 54 -4.5 134t-1 166.5zM250 -270h61q60 0 85 25t17 83l-17 96h144l16 -96 q18 -126 -41 -183t-204 -57h-61v132zM545 -17v211q30 10 42 34.5t14 64.5q2 34 2 73.5t-2 98.5h269q2 -18 2.5 -64t-0.5 -80q-8 -167 -84 -247t-243 -91zM545 1035v211q167 -11 243.5 -89.5t83.5 -242.5q1 -36 0.5 -83.5t-2.5 -63.5h-269q2 36 2 90t-2 88q-2 36 -14.5 58 t-41.5 32z" />
<glyph unicode="&#xe8;" horiz-adv-x="941" d="M76.5 621.5q0.5 86.5 1.5 162t4 120.5q11 169 90 249.5t245 92.5v-210q-57 -17 -60 -91q-3 -126 -4.5 -230t0 -205t4.5 -219q2 -77 60 -96v-212q-173 12 -249 93t-86 245q-3 54 -4.5 134t-1 166.5zM173 1584h196l175 -273h-188zM452 568v188h151v116t-2 73q-3 70 -55 90 v211q166 -12 242 -90.5t84 -241.5q1 -24 1.5 -82.5t0 -130t-3.5 -133.5h-418zM546 -17v211q51 18 55 99q2 31 2.5 72t-2.5 100h269q2 -17 2.5 -64t-0.5 -80q-8 -167 -84 -247t-242 -91z" />
<glyph unicode="&#xe9;" horiz-adv-x="941" d="M76.5 621.5q0.5 86.5 1.5 162t4 120.5q11 169 90 249.5t245 92.5v-210q-57 -17 -60 -91q-3 -126 -4.5 -230t0 -205t4.5 -219q2 -77 60 -96v-212q-173 12 -249 93t-86 245q-3 54 -4.5 134t-1 166.5zM394 1311l191 273h195l-200 -273h-186zM452 568v188h151v116t-2 73 q-3 70 -55 90v211q166 -12 242 -90.5t84 -241.5q1 -24 1.5 -82.5t0 -130t-3.5 -133.5h-418zM546 -17v211q51 18 55 99q2 31 2.5 72t-2.5 100h269q2 -17 2.5 -64t-0.5 -80q-8 -167 -84 -247t-242 -91z" />
<glyph unicode="&#xea;" horiz-adv-x="941" d="M76.5 621.5q0.5 86.5 1.5 162t4 120.5q11 169 90 249.5t245 92.5v-210q-57 -17 -60 -91q-3 -126 -4.5 -230t0 -205t4.5 -219q2 -77 60 -96v-212q-173 12 -249 93t-86 245q-3 54 -4.5 134t-1 166.5zM213 1313l177 273h166l177 -273h-182l-78 132l-78 -132h-182zM452 568 v188h151v116t-2 73q-3 70 -55 90v211q166 -12 242 -90.5t84 -241.5q1 -24 1.5 -82.5t0 -130t-3.5 -133.5h-418zM546 -17v211q51 18 55 99q2 31 2.5 72t-2.5 100h269q2 -17 2.5 -64t-0.5 -80q-8 -167 -84 -247t-242 -91z" />
<glyph unicode="&#xeb;" horiz-adv-x="941" d="M76.5 621.5q0.5 86.5 1.5 162t4 120.5q11 169 90 249.5t245 92.5v-210q-57 -17 -60 -91q-3 -126 -4.5 -230t0 -205t4.5 -219q2 -77 60 -96v-212q-173 12 -249 93t-86 245q-3 54 -4.5 134t-1 166.5zM237 1311v186h186v-186h-186zM452 568v188h151v116t-2 73q-3 70 -55 90 v211q166 -12 242 -90.5t84 -241.5q1 -24 1.5 -82.5t0 -130t-3.5 -133.5h-418zM532 1311v186h186v-186h-186zM546 -17v211q51 18 55 99q2 31 2.5 72t-2.5 100h269q2 -17 2.5 -64t-0.5 -80q-8 -167 -84 -247t-242 -91z" />
<glyph unicode="&#xec;" horiz-adv-x="472" d="M-68 1584h196l175 -273h-188zM100 0v1229h272v-1229h-272z" />
<glyph unicode="&#xed;" horiz-adv-x="472" d="M100 0v1229h272v-1229h-272zM153 1311l191 273h195l-200 -273h-186z" />
<glyph unicode="&#xee;" horiz-adv-x="472" d="M-28 1313l177 273h166l177 -273h-182l-78 132l-78 -132h-182zM100 0v1229h272v-1229h-272z" />
<glyph unicode="&#xef;" horiz-adv-x="472" d="M-4 1311v186h186v-186h-186zM100 0v1229h272v-1229h-272zM291 1311v186h186v-186h-186z" />
<glyph unicode="&#xf0;" horiz-adv-x="990" d="M76.5 558q0.5 106 2.5 212q3 148 84.5 236.5t205.5 88.5q80 0 136.5 -30t83.5 -77h25q-33 118 -103 214l-139 -63l-60 118l108 50q-76 69 -173 120l147 230q165 -94 274 -214l154 69l61 -117l-131 -61q80 -123 119.5 -272.5t47.5 -329.5q2 -51 2.5 -118t0 -134t-2.5 -116 q-9 -206 -102.5 -294.5t-313.5 -88.5q-217 0 -315 88.5t-107 292.5q-5 90 -4.5 196zM352 622.5q0 -79.5 1.5 -161.5t3.5 -149q3 -111 145 -110q135 0 141 108q4 127 2.5 247.5t-2.5 219.5q-17 98 -150 99q-70 0 -104 -31t-36 -85q-1 -58 -1 -137.5z" />
<glyph unicode="&#xf1;" horiz-adv-x="1034" d="M100 0v1229h272v-1229h-272zM192 1327q8 115 62.5 168t143.5 52q66 -1 105.5 -24t71.5 -46t74 -23q40 -1 64.5 18t25.5 52h109q-5 -113 -60.5 -162t-142.5 -48q-61 0 -102.5 23.5t-75.5 46.5t-76 24q-79 2 -89 -81h-110zM501 1042v153q30 26 69 39.5t96 13.5 q132 0 202 -75.5t71 -248.5v-924h-271v947q-1 102 -116 103q-22 0 -51 -8z" />
<glyph unicode="&#xf2;" horiz-adv-x="978" d="M76 612.5q0 73.5 1.5 141.5t3.5 114q11 193 88 280t257 98v-211q-72 -23 -74 -100q-5 -135 -5 -303t6 -337q2 -82 73 -102v-210q-181 12 -258 100.5t-87 277.5q-2 44 -3.5 111t-1.5 140.5zM186 1584h196l175 -273h-188zM555 -17v210q69 19 71 102q4 121 5.5 224t0 202.5 t-5.5 214.5q-2 81 -71 100v210q184 -12 258.5 -101t84.5 -277q3 -62 4 -157.5t0 -191t-4 -158.5q-11 -189 -86 -277.5t-257 -100.5z" />
<glyph unicode="&#xf3;" horiz-adv-x="978" d="M76 612.5q0 73.5 1.5 141.5t3.5 114q11 193 88 280t257 98v-211q-72 -23 -74 -100q-5 -135 -5 -303t6 -337q2 -82 73 -102v-210q-181 12 -258 100.5t-87 277.5q-2 44 -3.5 111t-1.5 140.5zM407 1311l191 273h195l-200 -273h-186zM555 -17v210q69 19 71 102q4 121 5.5 224 t0 202.5t-5.5 214.5q-2 81 -71 100v210q184 -12 258.5 -101t84.5 -277q3 -62 4 -157.5t0 -191t-4 -158.5q-11 -189 -86 -277.5t-257 -100.5z" />
<glyph unicode="&#xf4;" horiz-adv-x="978" d="M76 612.5q0 73.5 1.5 141.5t3.5 114q11 193 88 280t257 98v-211q-72 -23 -74 -100q-5 -135 -5 -303t6 -337q2 -82 73 -102v-210q-181 12 -258 100.5t-87 277.5q-2 44 -3.5 111t-1.5 140.5zM226 1313l177 273h166l177 -273h-182l-78 132l-78 -132h-182zM555 -17v210 q69 19 71 102q4 121 5.5 224t0 202.5t-5.5 214.5q-2 81 -71 100v210q184 -12 258.5 -101t84.5 -277q3 -62 4 -157.5t0 -191t-4 -158.5q-11 -189 -86 -277.5t-257 -100.5z" />
<glyph unicode="&#xf5;" horiz-adv-x="978" d="M76 612.5q0 73.5 1.5 141.5t3.5 114q11 193 88 280t257 98v-211q-72 -23 -74 -100q-5 -135 -5 -303t6 -337q2 -82 73 -102v-210q-181 12 -258 100.5t-87 277.5q-2 44 -3.5 111t-1.5 140.5zM163 1327q8 115 62.5 168t143.5 52q66 -1 105.5 -24t71.5 -46t74 -23 q40 -1 64.5 18t25.5 52h109q-5 -113 -60.5 -162t-142.5 -48q-61 0 -102.5 23.5t-75.5 46.5t-76 24q-79 2 -89 -81h-110zM555 -17v210q69 19 71 102q4 121 5.5 224t0 202.5t-5.5 214.5q-2 81 -71 100v210q184 -12 258.5 -101t84.5 -277q3 -62 4 -157.5t0 -191t-4 -158.5 q-11 -189 -86 -277.5t-257 -100.5z" />
<glyph unicode="&#xf6;" horiz-adv-x="978" d="M76 612.5q0 73.5 1.5 141.5t3.5 114q11 193 88 280t257 98v-211q-72 -23 -74 -100q-5 -135 -5 -303t6 -337q2 -82 73 -102v-210q-181 12 -258 100.5t-87 277.5q-2 44 -3.5 111t-1.5 140.5zM250 1311v186h186v-186h-186zM545 1311v186h186v-186h-186zM555 -17v210 q69 19 71 102q4 121 5.5 224t0 202.5t-5.5 214.5q-2 81 -71 100v210q184 -12 258.5 -101t84.5 -277q3 -62 4 -157.5t0 -191t-4 -158.5q-11 -189 -86 -277.5t-257 -100.5z" />
<glyph unicode="&#xf7;" horiz-adv-x="1103" d="M88 642v205h928v-205h-928zM445 316v206h215v-206h-215zM445 967v207h215v-207h-215z" />
<glyph unicode="&#xf8;" horiz-adv-x="978" d="M76 612.5q0 73.5 1.5 141.5t3.5 114q11 193 88 280t257 98v-211q-72 -23 -74 -100q-5 -135 -5 -303t6 -337q2 -82 73 -102v-210q-181 12 -258 100.5t-87 277.5q-2 44 -3.5 111t-1.5 140.5zM403 602l195 208q1 -51 1.5 -99t0.5 -98l-192 -203q-2 48 -3.5 96t-1.5 96z M555 -17v210q69 19 71 102q4 121 5.5 224t0 202.5t-5.5 214.5q-2 81 -71 100v210q184 -12 258.5 -101t84.5 -277q3 -62 4 -157.5t0 -191t-4 -158.5q-11 -189 -86 -277.5t-257 -100.5z" />
<glyph unicode="&#xf9;" horiz-adv-x="1017" d="M82 305v924h273l3 -946q0 -103 108 -104q25 0 46 6v-160q-62 -44 -150 -44q-130 0 -205 75.5t-75 248.5zM193 1584h196l175 -273h-188zM641 0v1229h275v-1229h-275z" />
<glyph unicode="&#xfa;" horiz-adv-x="1017" d="M82 305v924h273l3 -946q0 -103 108 -104q25 0 46 6v-160q-62 -44 -150 -44q-130 0 -205 75.5t-75 248.5zM413 1311l191 273h195l-200 -273h-186zM641 0v1229h275v-1229h-275z" />
<glyph unicode="&#xfb;" horiz-adv-x="1017" d="M82 305v924h273l3 -946q0 -103 108 -104q25 0 46 6v-160q-62 -44 -150 -44q-130 0 -205 75.5t-75 248.5zM232 1313l177 273h166l177 -273h-182l-78 132l-78 -132h-182zM641 0v1229h275v-1229h-275z" />
<glyph unicode="&#xfc;" horiz-adv-x="1017" d="M82 305v924h273l3 -946q0 -103 108 -104q25 0 46 6v-160q-62 -44 -150 -44q-130 0 -205 75.5t-75 248.5zM256 1311v186h186v-186h-186zM551 1311v186h186v-186h-186zM641 0v1229h275v-1229h-275z" />
<glyph unicode="&#xfd;" horiz-adv-x="928" d="M45 1229h281l80 -564l46 -465h266l-34 -200h-403zM76 -213q29 -2 75.5 -3.5t77.5 -1.5q71 0 109 15t46 57l7 42h275l-8 -41q-17 -94 -62.5 -157.5t-133.5 -95t-232 -31.5q-35 0 -75.5 4t-78.5 10v202zM384 1311l191 273h195l-200 -273h-186zM520 304l26 361l62 564h281 l-154 -925h-215z" />
<glyph unicode="&#xfe;" horiz-adv-x="1015" d="M100 -410v2048h277v-2048h-277zM506 23v159q11 -3 28 -3q120 0 124 104q6 97 8.5 217t0.5 239t-9 214q-6 96 -108 97q-23 0 -44 -6v164q28 19 64 29.5t87 10.5q129 0 199.5 -75t78.5 -249q2 -54 3.5 -137.5t1.5 -174.5t-1.5 -173t-3.5 -134q-8 -174 -85.5 -249 t-206.5 -75q-82 0 -137 42z" />
<glyph unicode="&#xff;" horiz-adv-x="928" d="M45 1229h281l80 -564l46 -465h266l-34 -200h-403zM76 -213q29 -2 75.5 -3.5t77.5 -1.5q71 0 109 15t46 57l7 42h275l-8 -41q-17 -94 -62.5 -157.5t-133.5 -95t-232 -31.5q-35 0 -75.5 4t-78.5 10v202zM227 1311v186h186v-186h-186zM520 304l26 361l62 564h281l-154 -925 h-215zM522 1311v186h186v-186h-186z" />
<glyph unicode="&#x152;" horiz-adv-x="1441" d="M88 675q-1 146 0 291.5t4 310.5q4 189 87.5 278.5t270.5 99.5v-228q-81 -23 -83 -136q-10 -246 -10.5 -469.5t10.5 -472.5q2 -116 83 -138v-227q-186 10 -270 99.5t-88 278.5q-3 167 -4 313zM579 -16v227q80 22 81 138q10 247 10.5 470.5t-10.5 471.5q-2 115 -81 136v228 q179 -12 261 -101.5t88 -276.5q6 -166 8 -311.5t0 -291.5t-8 -312q-6 -188 -88 -277t-261 -101zM687 0v1638h271v-1638h-271zM1088 0v240h297v-240h-297zM1088 712v239h276v-239h-276zM1088 1399v239h297v-239h-297z" />
<glyph unicode="&#x153;" horiz-adv-x="1498" d="M76 612.5q0 73.5 1.5 141.5t3.5 114q11 193 88 280t257 98v-211q-72 -23 -74 -100q-5 -135 -5 -303t6 -337q2 -82 73 -102v-210q-181 12 -258 100.5t-87 277.5q-2 44 -3.5 111t-1.5 140.5zM555 -17v210q69 19 71 102q4 121 5.5 224t0 202.5t-5.5 214.5q-2 81 -71 100v210 q184 -12 258.5 -101t84.5 -277q3 -62 4 -157.5t0 -191t-4 -158.5q-11 -189 -86 -277.5t-257 -100.5zM633.5 621.5q0.5 86.5 1.5 162t4 120.5q11 169 90 249.5t245 92.5v-210q-57 -17 -60 -91q-3 -126 -4.5 -230t0 -205t4.5 -219q2 -77 60 -96v-212q-173 12 -249 93t-86 245 q-3 54 -4.5 134t-1 166.5zM1009 568v188h151v116t-2 73q-3 70 -55 90v211q166 -12 242 -90.5t84 -241.5q1 -24 1.5 -82.5t0 -130t-3.5 -133.5h-418zM1103 -17v211q51 18 55 99q2 31 2.5 72t-2.5 100h269q2 -17 2.5 -64t-0.5 -80q-8 -167 -84 -247t-242 -91z" />
<glyph unicode="&#x178;" horiz-adv-x="931" d="M22 1638h276l84 -413l40 -479h250l-51 -212h-36v-534h-271v534h-38zM211 1721v186h186v-186h-186zM506 1721v186h186v-186h-186zM519 837l31 388l84 413h276l-203 -801h-188z" />
<glyph unicode="&#x2c6;" horiz-adv-x="696" d="M88 1313l177 273h166l177 -273h-182l-78 132l-78 -132h-182z" />
<glyph unicode="&#x2dc;" horiz-adv-x="830" d="M88 1327q8 115 62.5 168t143.5 52q66 -1 105.5 -24t71.5 -46t74 -23q40 -1 64.5 18t25.5 52h109q-5 -113 -60.5 -162t-142.5 -48q-61 0 -102.5 23.5t-75.5 46.5t-76 24q-79 2 -89 -81h-110z" />
<glyph unicode="&#x2000;" horiz-adv-x="1062" />
<glyph unicode="&#x2001;" horiz-adv-x="2124" />
<glyph unicode="&#x2002;" horiz-adv-x="1062" />
<glyph unicode="&#x2003;" horiz-adv-x="2124" />
<glyph unicode="&#x2004;" horiz-adv-x="708" />
<glyph unicode="&#x2005;" horiz-adv-x="531" />
<glyph unicode="&#x2006;" horiz-adv-x="354" />
<glyph unicode="&#x2007;" horiz-adv-x="354" />
<glyph unicode="&#x2008;" horiz-adv-x="265" />
<glyph unicode="&#x2009;" horiz-adv-x="424" />
<glyph unicode="&#x200a;" horiz-adv-x="118" />
<glyph unicode="&#x2010;" horiz-adv-x="899" d="M61 618v239h777v-239h-777z" />
<glyph unicode="&#x2011;" horiz-adv-x="899" d="M61 618v239h777v-239h-777z" />
<glyph unicode="&#x2012;" horiz-adv-x="899" d="M61 618v239h777v-239h-777z" />
<glyph unicode="&#x2013;" horiz-adv-x="1097" d="M61 618v239h975v-239h-975z" />
<glyph unicode="&#x2014;" horiz-adv-x="1795" d="M61 618v239h1673v-239h-1673z" />
<glyph unicode="&#x2018;" horiz-adv-x="536" d="M85 1097v243l168 298h155l-130 -273h174v-268h-367z" />
<glyph unicode="&#x2019;" horiz-adv-x="536" d="M85 1370v268h367v-243l-168 -298h-155l130 273h-174z" />
<glyph unicode="&#x201a;" horiz-adv-x="536" d="M80 0v268h365v-243l-166 -298h-156l131 273h-174z" />
<glyph unicode="&#x201c;" horiz-adv-x="913" d="M72 1097v243l159 298h147l-122 -273h157v-268h-341zM499 1097v243l160 298h146l-121 -273h158v-268h-343z" />
<glyph unicode="&#x201d;" horiz-adv-x="913" d="M72 1370v268h341v-243l-159 -298h-145l120 273h-157zM499 1370v268h343v-243l-160 -298h-146l121 273h-158z" />
<glyph unicode="&#x201e;" horiz-adv-x="1038" d="M80 0v268h365v-243l-166 -298h-156l131 273h-174zM580 0v268h365v-243l-166 -298h-156l131 273h-174z" />
<glyph unicode="&#x2022;" horiz-adv-x="581" d="M85 645v369h411v-369h-411z" />
<glyph unicode="&#x2026;" horiz-adv-x="1478" d="M63 0v263h365v-263h-365zM535 0v263h365v-263h-365zM1007 0v263h365v-263h-365z" />
<glyph unicode="&#x202f;" horiz-adv-x="424" />
<glyph unicode="&#x2039;" horiz-adv-x="499" d="M61 518v250l353 342v-250l-223 -217l223 -217v-250z" />
<glyph unicode="&#x203a;" horiz-adv-x="499" d="M86 176l353 342v250l-353 342v-250l223 -217l-223 -217v-250z" />
<glyph unicode="&#x205f;" horiz-adv-x="531" />
<glyph unicode="&#x20ac;" horiz-adv-x="1137" d="M87 622l38 140h139v112h-123l40 142h83l1 238q0 187 98 285.5t313 98.5h373l-69 -238h-304q-135 0 -138 -116q-5 -209 -6 -442.5t6 -485.5q3 -118 138 -117h337l-69 -239h-268q-132 0 -224 33.5t-139.5 116t-48.5 232.5v240h-177zM656 622v140h267l-40 -140h-227z M656 874v142h328l-44 -142h-284z" />
<glyph unicode="&#x2122;" horiz-adv-x="923" d="M88 1556v82h281v-82h-281zM181 1204v294h97v-294h-97zM408 1204v294h85l13 -164v-130h-98zM408 1556v82h152l42 -202l10 -152h18l8 152l45 202h152v-82h-95l-32 -230l-42 -122h-92l-37 122l-37 230h-92zM734 1204v130l17 164h84v-294h-101z" />
<glyph unicode="&#x25fc;" horiz-adv-x="1228" d="M0 0v1229h1229v-1229h-1229z" />
<glyph unicode="&#xfb03;" horiz-adv-x="1798" d="M28 1024v205h1260v-205h-1260zM164 946h275l2 -946h-275zM164 1306v30q0 173 94 249q94 75 310 75q36 0 78 -4q41 -4 80 -10v-198h-77q-39 1 -80 1q-130 0 -130 -109v-34h-275zM792 946h275l2 -946h-275zM792 1306v30q0 173 93 249q94 75 311 75q36 0 78 -4t80 -10v-198 h-78q-39 1 -79 1q-130 0 -130 -109v-34h-275zM1409 1424v214h284v-214h-284zM1428 0v1229h271v-1229h-271z" />
<glyph unicode="&#xfb04;" horiz-adv-x="1807" d="M28 1024v205h1260v-205h-1260zM164 946h275l2 -946h-275zM164 1306v30q0 173 94 249q94 75 310 75q36 0 78 -4q41 -4 80 -10v-198h-77q-39 1 -80 1q-130 0 -130 -109v-34h-275zM792 946h275l2 -946h-275zM792 1306v30q0 173 93 249q94 75 311 75q36 0 78 -4t80 -10v-198 h-78q-39 1 -79 1q-130 0 -130 -109v-34h-275zM1435 0v1638h272v-1638h-272z" />
</font>
</defs>
</svg>
